<?xml version="1.0" encoding="UTF-8"?><svg id="Layer_2" xmlns="http://www.w3.org/2000/svg" viewBox="0 0 25.32 27.24"><defs><style>.cls-1{fill:#ff722c;stroke-width:0px;}</style></defs><g id="Layer_2-2"><g id="ZofeMg.tif"><path class="cls-1" d="M0,21.41c0-.06.01-.11.02-.17.03-.67.16-1.31.39-1.93.15-.39.32-.77.49-1.16.17-.39.34-.77.52-1.15.18-.4.37-.8.56-1.21.26-.55.51-1.09.77-1.64.24-.5.48-1,.72-1.51.24-.49.48-.99.72-1.48.32-.65.64-1.3.96-1.95.3-.61.61-1.23.92-1.84.25-.49.5-.99.75-1.48.26-.52.53-1.04.8-1.56.25-.48.49-.96.74-1.43.31-.57.66-1.11,1.12-1.57.48-.48,1.04-.84,1.68-1.08.37-.13.75-.22,1.14-.25.5-.05.99,0,1.47.11.61.15,1.16.43,1.65.82.53.42.94.94,1.3,1.51.33.52.59,1.08.87,1.63.31.59.61,1.18.92,1.78.24.46.47.92.7,1.38.23.46.47.93.7,1.39.26.52.51,1.03.77,1.55.24.49.48.99.72,1.48.24.49.47.98.71,1.47.26.55.52,1.09.78,1.64.28.6.56,1.2.84,1.8.19.41.38.81.57,1.22.26.57.52,1.14.73,1.73.17.51.27,1.04.3,1.58.02.37-.02.73-.1,1.09-.05.24-.09.48-.15.71-.12.49-.32.95-.57,1.39-.25.45-.56.85-.92,1.22-.54.55-1.17.97-1.89,1.26-.31.13-.62.25-.95.31-.27.05-.55.09-.82.12-.18.02-.37.02-.56.02-.45-.01-.9-.08-1.33-.18-.65-.15-1.27-.4-1.86-.72-.78-.43-1.49-.96-2.15-1.55-.47-.42-.91-.86-1.33-1.32-.04-.05-.06-.04-.1,0-.42.42-.83.85-1.26,1.26-.6.56-1.26,1.06-1.97,1.47-.43.25-.88.47-1.35.64-.44.16-.89.27-1.36.33-.35.05-.7.08-1.05.07-.5-.02-1-.09-1.48-.25-.61-.19-1.18-.47-1.71-.85-.41-.29-.77-.64-1.09-1.03-.36-.44-.65-.92-.87-1.44-.18-.43-.31-.87-.38-1.33-.04-.24-.04-.49-.06-.73,0-.03,0-.05-.01-.08,0-.04,0-.09,0-.13ZM19.57,25.57c.09,0,.24,0,.39-.02.13-.01.25-.03.37-.06.66-.14,1.25-.41,1.77-.84.46-.38.82-.83,1.09-1.37.25-.52.39-1.06.41-1.63,0-.24,0-.47-.02-.71-.04-.45-.15-.88-.32-1.29-.14-.33-.29-.65-.43-.97-.16-.36-.32-.72-.48-1.08-.12-.27-.25-.54-.38-.81-.28-.6-.56-1.2-.84-1.79-.24-.5-.47-.99-.71-1.49-.34-.71-.69-1.43-1.03-2.14-.24-.49-.48-.98-.72-1.47-.23-.47-.46-.94-.7-1.41-.24-.48-.48-.96-.72-1.43-.3-.6-.61-1.2-.91-1.8-.21-.41-.43-.83-.64-1.24-.18-.35-.37-.68-.6-.99-.29-.39-.64-.7-1.07-.92-.52-.26-1.08-.35-1.66-.28-.52.06-.98.26-1.39.58-.36.27-.63.62-.85,1-.23.4-.45.81-.66,1.22-.26.5-.52,1-.78,1.5-.24.46-.47.92-.71,1.38-.24.47-.47.93-.71,1.4-.23.47-.47.94-.7,1.4-.24.48-.47.96-.71,1.44-.26.54-.52,1.07-.78,1.61-.26.54-.51,1.07-.77,1.61-.26.55-.52,1.1-.78,1.65-.26.56-.53,1.11-.78,1.67-.26.56-.52,1.12-.73,1.7-.17.5-.27,1.01-.27,1.54,0,.31.02.61.09.91.18.77.55,1.43,1.1,1.98.38.38.82.68,1.33.88.66.26,1.34.35,2.04.28.5-.05.98-.18,1.43-.37.61-.26,1.17-.61,1.7-1,.76-.57,1.43-1.24,2.06-1.94.03-.03.03-.06,0-.09-.51-.63-.99-1.28-1.43-1.96-.35-.54-.68-1.1-.96-1.68-.25-.5-.47-1.02-.65-1.56-.17-.51-.31-1.04-.38-1.57-.07-.56-.07-1.12.03-1.67.08-.46.23-.9.46-1.32.28-.52.65-.95,1.11-1.32.67-.54,1.44-.86,2.3-.98.53-.08,1.07-.06,1.6.03.72.13,1.39.41,1.97.85.93.71,1.49,1.65,1.68,2.8.05.29.05.59.05.89,0,.5-.06.99-.17,1.48-.11.51-.28,1.01-.47,1.49-.26.65-.59,1.28-.95,1.88-.55.92-1.17,1.78-1.84,2.6-.04.04-.04.07,0,.11.44.47.89.94,1.38,1.37.65.58,1.34,1.08,2.13,1.46.68.33,1.4.51,2.22.51ZM12.66,20.79s.04-.05.06-.07c.32-.45.65-.88.96-1.34.53-.77.99-1.59,1.35-2.46.25-.61.44-1.24.5-1.9.05-.54.02-1.07-.18-1.58-.2-.52-.52-.96-.99-1.27-.63-.41-1.32-.55-2.06-.47-.48.05-.92.21-1.32.47-.43.29-.75.66-.96,1.13-.18.4-.25.83-.25,1.27,0,.61.12,1.19.3,1.77.26.81.64,1.56,1.08,2.29.44.73.93,1.42,1.46,2.09.02.02.03.04.06.06Z"/></g></g></svg>