<?xml version="1.0" encoding="UTF-8"?><svg id="Layer_2" xmlns="http://www.w3.org/2000/svg" xmlns:xlink="http://www.w3.org/1999/xlink" viewBox="0 0 401.66 88.73"><defs><style>.cls-1{fill:url(#linear-gradient);}.cls-1,.cls-2,.cls-3,.cls-4,.cls-5,.cls-6,.cls-7,.cls-8{stroke-width:0px;}.cls-2{fill:url(#linear-gradient-4);}.cls-3{fill:url(#linear-gradient-2);}.cls-4{fill:url(#linear-gradient-3);}.cls-5{fill:url(#linear-gradient-8);}.cls-6{fill:url(#linear-gradient-7);}.cls-7{fill:url(#linear-gradient-5);}.cls-8{fill:url(#linear-gradient-6);}</style><linearGradient id="linear-gradient" x1="27.28" y1="107" x2="27.28" y2="30.42" gradientUnits="userSpaceOnUse"><stop offset="0" stop-color="#8ff4c2"/><stop offset="1" stop-color="#f2ec7a"/></linearGradient><linearGradient id="linear-gradient-2" x1="84.06" y1="107" x2="84.06" y2="30.42" xlink:href="#linear-gradient"/><linearGradient id="linear-gradient-3" x1="145.53" y1="107" x2="145.53" y2="30.42" xlink:href="#linear-gradient"/><linearGradient id="linear-gradient-4" x1="211.04" y1="107" x2="211.04" y2="30.42" xlink:href="#linear-gradient"/><linearGradient id="linear-gradient-5" x1="261.3" y1="107" x2="261.3" y2="30.42" xlink:href="#linear-gradient"/><linearGradient id="linear-gradient-6" x1="309.7" y1="107" x2="309.7" y2="30.42" gradientUnits="userSpaceOnUse"><stop offset="0" stop-color="#8ff4c2"/><stop offset="1" stop-color="#f2ec7a"/></linearGradient><linearGradient id="linear-gradient-7" x1="371.86" y1="107" x2="371.86" y2="30.42" xlink:href="#linear-gradient"/><linearGradient id="linear-gradient-8" x1="86.67" y1="107" x2="86.67" y2="30.42" xlink:href="#linear-gradient"/></defs><g id="Layer_2-2"><path class="cls-1" d="M45.01,61.36h-10.69c-1.1,0-1.88.23-2.35.7s-.7,1.25-.7,2.35v16.59c0,1.27-.49,1.91-1.48,1.91-.7,0-1.22-.23-1.56-.7v-49.7c0-1.1-.22-1.88-.65-2.35-.43-.46-1.17-.7-2.22-.7H1.04c-.7,0-1.04.29-1.04.87v1.04c0,.35.14.61.43.78,1.39.93,2.37,1.67,2.95,2.22.58.55.98,1.16,1.22,1.82.23.67.35,1.72.35,3.17v44.83c0,1.1.22,1.88.65,2.35.43.46,1.17.7,2.22.7h43.88c1.04,0,1.78-.23,2.22-.7.43-.46.65-1.24.65-2.35v-12.08c0-3.65-.78-6.36-2.35-8.12-1.56-1.77-3.97-2.65-7.21-2.65Z"/><path class="cls-3" d="M110.26,29.48h-19.2c-1.04,0-1.78.23-2.22.7-.43.46-.65,1.25-.65,2.35v49.44c0,1.56-.55,2.35-1.65,2.35s-1.65-.78-1.65-2.35v-49.44c0-1.1-.22-1.88-.65-2.35-.43-.46-1.17-.7-2.22-.7h-26.07c-.7,0-1.04.29-1.04.87v1.04c0,.35.15.61.43.78,1.39.93,2.37,1.67,2.95,2.22.58.55.98,1.16,1.22,1.82.23.67.35,1.72.35,3.17v24.07c0,8.34,2.26,14.64,6.78,18.9,4.52,4.26,11.15,6.39,19.9,6.39s15.45-2.13,19.94-6.39c4.49-4.26,6.73-10.56,6.73-18.9v-31.19c0-.98-.23-1.69-.7-2.13-.46-.43-1.22-.65-2.26-.65Z"/><path class="cls-4" d="M168.25,34.65c-3.79-3.45-9.4-5.17-16.81-5.17h-33.28c-.7,0-1.04.29-1.04.87v1.04c0,.35.14.61.43.78,1.39.93,2.37,1.67,2.95,2.22.58.55.98,1.16,1.22,1.82.23.67.35,1.72.35,3.17v44.83c0,1.1.2,1.88.61,2.35.4.46,1.16.7,2.26.7h17.55c1.1,0,1.85-.23,2.26-.7.4-.46.61-1.24.61-2.35v-15.2c2.2.7,4.72,1.04,7.56,1.04,6.49,0,11.61-1.82,15.38-5.47,3.76-3.65,5.65-8.54,5.65-14.68,0-6.72-1.9-11.8-5.69-15.25ZM148.66,62.67c0,.64-.15,1.16-.43,1.56-.29.41-.7.61-1.22.61-.75,0-1.3-.23-1.65-.7v-29.8c.35-.46.9-.7,1.65-.7.52,0,.93.2,1.22.61.29.41.43.93.43,1.56v26.85Z"/><path class="cls-2" d="M241.28,29.48h-60.47c-1.04,0-1.78.23-2.22.7-.43.46-.65,1.25-.65,2.35v16.42c0,3.65.78,6.36,2.35,8.12,1.56,1.77,3.97,2.65,7.21,2.65h5.91c1.1,0,1.88-.23,2.35-.7.46-.46.7-1.24.7-2.35v-21.11c0-1.27.49-1.91,1.48-1.91.64,0,1.13.23,1.48.7v49.87c0,1.1.22,1.88.65,2.35.43.46,1.17.7,2.22.7h17.55c1.04,0,1.78-.23,2.22-.7.43-.46.65-1.24.65-2.35v-49.87c.35-.46.84-.7,1.48-.7.98,0,1.48.64,1.48,1.91v21.11c0,1.1.23,1.88.7,2.35.46.46,1.24.7,2.35.7h5.91c3.24,0,5.65-.88,7.21-2.65,1.56-1.77,2.35-4.47,2.35-8.12v-16.42c0-1.1-.22-1.88-.65-2.35-.43-.46-1.17-.7-2.22-.7Z"/><path class="cls-7" d="M272.55,29.48h-24.33c-.7,0-1.04.29-1.04.87v1.04c0,.35.14.61.43.78,1.39.93,2.37,1.67,2.95,2.22.58.55.98,1.16,1.22,1.82.23.67.35,1.72.35,3.17v44.83c0,1.1.22,1.88.65,2.35.43.46,1.17.7,2.22.7h17.55c1.04,0,1.78-.23,2.22-.7.43-.46.65-1.24.65-2.35v-51.7c0-1.1-.22-1.88-.65-2.35-.43-.46-1.17-.7-2.22-.7Z"/><path class="cls-8" d="M336.98,53.94c-.2-.32-.51-.48-.91-.48h-1.3c-.23,0-.43.07-.61.22-.17.15-.43.42-.78.83-1.74,2.03-3.95,3.62-6.65,4.78-2.69,1.16-5.58,1.74-8.65,1.74-5.21,0-9.49-1.48-12.82-4.43-3.33-2.95-5-6.72-5-11.3,0-3.65,1.27-6.72,3.82-9.21,2.55-2.49,5.7-3.74,9.47-3.74.64,0,1.16.13,1.56.39.4.26.61.62.61,1.09,0,.41-.17.78-.52,1.13-3.65,0-6.55.93-8.69,2.78-2.14,1.85-3.21,4.34-3.21,7.47,0,2.49.68,4.71,2.04,6.65,1.36,1.94,3.18,3.45,5.47,4.52,2.29,1.07,4.82,1.61,7.6,1.61,4.58,0,8.25-1.17,11.03-3.52,2.78-2.35,4.17-5.46,4.17-9.34,0-3.36-1.03-6.34-3.08-8.95-2.06-2.61-4.82-4.62-8.3-6.04-3.48-1.42-7.39-2.13-11.73-2.13-5.79,0-10.89,1.29-15.29,3.87-4.4,2.58-7.79,6.11-10.17,10.6-2.38,4.49-3.56,9.57-3.56,15.25,0,6.08,1.32,11.5,3.95,16.25,2.64,4.75,6.17,8.4,10.6,10.95,4.43,2.55,9.34,3.82,14.73,3.82s10.05-1.3,14.16-3.91c4.11-2.61,7.3-6.1,9.56-10.47,2.26-4.37,3.39-9.25,3.39-14.64,0-1.45-.12-2.75-.35-3.91-.17-.93-.36-1.55-.56-1.87Z"/><path class="cls-6" d="M393.88,35.91c-5.18-5.27-12.53-7.91-22.03-7.91s-16.84,2.64-22.03,7.91c-5.18,5.27-7.78,12.74-7.78,22.42s2.59,17.16,7.78,22.46c5.18,5.3,12.52,7.95,22.03,7.95s16.84-2.65,22.03-7.95c5.18-5.3,7.78-12.79,7.78-22.46s-2.59-17.14-7.78-22.42ZM373.51,81.96c0,1.56-.55,2.35-1.65,2.35s-1.65-.78-1.65-2.35v-47.18c0-1.56.55-2.35,1.65-2.35s1.65.78,1.65,2.35v47.18Z"/><path class="cls-5" d="M82.1,25.02c-1.39,0-2.97-.19-4.74-.56-1.77-.38-3.08-.83-3.95-1.35-.64-.35-.96-.72-.96-1.13,0-.17.09-.43.26-.78l.43-.78c.17-.29.4-.43.7-.43.17,0,.43.09.78.26l.52.26c1.04.52,2.06.78,3.04.78,3.13,0,4.69-1.51,4.69-4.52,0-1.16-.1-2.35-.3-3.56-.2-1.22-.3-2.49-.3-3.82,0-2.9.88-5.18,2.65-6.86,1.77-1.68,4.16-2.52,7.17-2.52,2.55,0,4.65.83,6.3,2.48,1.65,1.65,2.48,3.78,2.48,6.39,0,2.9-.81,5.56-2.43,7.99-1.62,2.43-3.88,4.4-6.78,5.91-2.9,1.51-6.08,2.26-9.56,2.26Z"/></g></svg>