<?xml version="1.0" encoding="UTF-8"?><svg id="Layer_2" xmlns="http://www.w3.org/2000/svg" viewBox="0 0 34.59 24.37"><defs><style>.cls-1{fill:#ff722c;stroke-width:0px;}</style></defs><g id="Layer_2-2"><path class="cls-1" d="M17.4,0c4.47,0,8.94,0,13.41,0,2.44,0,3.76,1.29,3.76,3.75.02,5.62.02,11.25,0,16.87,0,2.44-1.34,3.75-3.77,3.75-9.01,0-18.02,0-27.04,0-2.44,0-3.75-1.3-3.76-3.75C0,14.99,0,9.37.01,3.74.02,1.29,1.33,0,3.78,0c4.54,0,9.08,0,13.62,0ZM2.85,4.22c-.03.48-.05.75-.05,1.02,0,5.03.02,10.05-.02,15.08,0,1.01.32,1.31,1.32,1.31,8.8-.03,17.59-.03,26.39,0,1.01,0,1.33-.3,1.32-1.31-.04-5.03-.02-10.05-.02-15.08,0-.28-.05-.57-.08-.96-.46.36-.79.61-1.12.86-3.96,3.15-7.92,6.3-11.89,9.44-1.25.99-1.54.99-2.81-.01-.19-.15-.38-.3-.57-.46C11.22,10.86,7.12,7.61,2.85,4.22ZM5.78,2.82c.04.12.04.2.08.23,3.65,2.91,7.3,5.83,10.99,8.7.21.16.8.09,1.04-.1,3.54-2.77,7.06-5.58,10.57-8.38.14-.11.25-.27.41-.45H5.78Z"/></g></svg>