<?xml version="1.0" encoding="UTF-8"?><svg id="Layer_2" xmlns="http://www.w3.org/2000/svg" viewBox="0 0 24.47 24.47"><defs><style>.cls-1{fill:#ff722c;fill-rule:evenodd;stroke-width:0px;}</style></defs><g id="Layer_2-2"><path class="cls-1" d="M17.67,0H6.8C3.04,0,0,3.04,0,6.8v10.87c0,3.75,3.04,6.8,6.8,6.8h10.87c3.75,0,6.8-3.04,6.8-6.8V6.8c0-3.75-3.04-6.8-6.8-6.8ZM22.09,17.67c0,2.44-1.98,4.41-4.42,4.42H6.8c-2.44,0-4.41-1.98-4.42-4.42V6.8c0-2.44,1.98-4.41,4.42-4.42h10.87c2.44,0,4.41,1.98,4.42,4.42v10.87ZM18.69,7.14c.75,0,1.36-.61,1.36-1.36s-.61-1.36-1.36-1.36-1.36.61-1.36,1.36.61,1.36,1.36,1.36ZM12.23,6.12c-3.38,0-6.12,2.74-6.12,6.12s2.74,6.12,6.12,6.12,6.12-2.74,6.12-6.12c0-1.62-.64-3.18-1.79-4.33-1.15-1.15-2.71-1.79-4.33-1.79ZM8.5,12.23c0,2.06,1.67,3.74,3.74,3.74s3.74-1.67,3.74-3.74-1.67-3.74-3.74-3.74-3.74,1.67-3.74,3.74Z"/></g></svg>