<?xml version="1.0" encoding="UTF-8"?><svg id="Layer_2" xmlns="http://www.w3.org/2000/svg" viewBox="0 0 66.35 86.63"><defs><style>.cls-1{fill:#ff722c;}.cls-1,.cls-2{stroke-width:0px;}.cls-2{fill:#fff;}</style></defs><g id="Layer_2-2"><circle class="cls-2" cx="33.18" cy="43.31" r="33.18"/><path class="cls-1" d="M21.48,33.58c.94.34,1.71.21,1.55-.37-.16-.58-.17-1.51-1.19-1.84-.76-.25-1.52-.18-1.47.35.04.53.17,1.51,1.11,1.85Z"/><path class="cls-1" d="M56.41,56c1.82-.88,4.31-3.74,3.87-5.61s-2.62-2.71-3.91-6.48c-1.29-3.76-1.08-6.24-1.15-7.7s-1.18-4.24-3.26-3.75-3.17,1.88-3.64,3.97c-.47,2.09-.68,4.29.92,7.24,1.6,2.95,2.17,4.4,1.32,5.11-.85.71-3.87-.85-8.02.74-4.15,1.58-5.65,3.58-6.06,4.09-.41.51-1.23.22-1.78-.18-.55-.4-2.1-1.14-3.21-1.29-1.11-.15-1.75-.21-2.15-.59-.35-.32-.37-.96.68-1.29,1.1-.35,2.87.48,3.93.77,2.3.63,4.81-1.09,5.23-2.25.42-1.16-.55-2.06-1.4-2.4-.84-.34-5.37-3.32-6.61-4.86-1.24-1.54-2.96-1.48-4.2-.4s-2.01,2.76-2.56,4.16c-.54,1.4-1.56,1.64-2.89.32-1.33-1.32-5.02-3.3-6.06-3.51-1.04-.21-.42-.81-.22-1.3s.23-1.16,1.31-.68c1.07.48,3.87,1.17,7.04.37,3.17-.81,4.8-1.8,5.3-3.05.5-1.25-.49-.94-.92-2.31s-1.14-5.91-2.6-7.48c-1.47-1.57-2.1-1.72-2.09-2.63.01-.91.34-2.87,2.42-3.14,2.08-.27,5.24,3.99,5.73,7.01s.8,8.32,5.4,12.13c4.6,3.81,8.87,3.89,9.42,2.85.55-1.03-1.7-4.31-2.41-6.81-.71-2.51-1.8-8.73-2.03-12.22-.22-3.49-1.55-6.46-2.17-7.25-.63-.8-.29-.8.92-.71,1.69.12,6.07-2.19,8.05-4.66,1.98-2.47,2.33-4.34,1.41-5.11-.59-.5-1-.19-2.04.2-1.04.39-4.11,1.14-6.27.5-2.16-.65-3.42-1.2-4.7-2.08-1.28-.88-4.97-4.05-8.21-5.09-3.24-1.04-6.4-1.11-10.99,1.7-4.59,2.81-6.15,8.04-6.56,10.34-.42,2.3,1.09,7.94,1.23,9.23.14,1.3.26,3.5-.84,4.44-1.11.94-4.83,5.84-5.76,11.71-.93,5.87-.19,12.3,3.93,19.21,4.12,6.91,10.44,10.44,16.73,12.63,6.28,2.18,9.04,2.27,10.15,2.4,1.11.13,2.75,2.72,2.74,4.75-.01,2.13-.55,3.86-3.23,5.78-2.47,1.77-4.15.76-4.16-1.2-.01-1.96.85-5.54,3.56-6.27,1.17-.31,2.1-1.32.83-2.53-.85-.81-2.87.76-3.72,1.48-.84.73-3.12,3.53-3.36,6.33-.24,2.81-1.31,3.7-2.02,4.21-.71.51-1.32,1.41.83,1.61,2.16.2,7.1.5,10.02-1.85,2.92-2.35,4.87-5.6,3.85-8.75-1.01-3.15-3.12-3.78-1.3-4.36,1.82-.58,5.27-2.89,6.98-7.59,1.71-4.7,6.86-7.05,8.69-7.94ZM39.44,23.29c.53,3.89,1.01,8.7,1.33,10.55.83,4.7,2.93,7.59,1.91,7.76-1.02.17-3.01-.76-4.95-2.75-1.94-1.99-3.29-4.84-3.82-8.48-.38-2.65-.75-6.04-3.82-9.11s-5.39-2.13-6.18-1.42c-1.27,1.14-2.04,2.7-2.38,3.87-.35,1.22-1.34.89-1.1-.38.26-1.33,1.37-3.97,2.29-5.18.66-.87,3.11-3.58,5.84-3.51,3.81.1,5.56.79,7.94,2.49.81.58,2.4,2.26,2.93,6.15ZM20.41,12.78c2.24-1.66,5.3-.76,6.51-.37,1.08.35.06.39-.41.48-3.47.63-6.1,5.44-6.32,6.55-.23,1.11-.46,1.09-.71.17-.26-.92-1.3-5.16.95-6.82ZM44.06,65.2c-3.03,5.35-8.95,4.21-15.71,2.65-6.76-1.56-14.66-7.94-17.02-12.19-2.36-4.24-3.76-12.28-3.08-17.53s4.8-10.52,6.21-11.48c1.41-.96,1.15-3.27,0-6.95-1.16-3.68-1.39-8.71,1.02-12.62,2.41-3.91,5.38-4.66,8.72-5.34,3.34-.68,8.21,2.54,9.49,3.82,1.28,1.28,3.73,2.7,5.59,3.57s4.93,1.35,6.54.75c2.84-1.05,1.99.28,1.38.88-.61.6-1.31,1.29-4.67,2.73s-7.15-.11-9.08-.94c-1.93-.82-6.63-3.02-10.65-2.98-4.02.05-5.73,3.32-6.19,5.54-.45,2.22.76,6.23,1.18,8.16.42,1.93.05,2.74,2,3.03s3.41,2.17,4.31,3.39c.89,1.22,1.54,4.27,1.66,5.26.12.99.8,1.81.29,2.19s-3.58,1.6-6.58,1.64c-3.01.03-4.45-1.18-6.12-2.47-.97-.75-.9,1.46-.12,2.67.78,1.21-.51,1.93-1.56,2.74-1.05.81-.32,2.19,1.56,2.5,2.38.39,6.44,3.49,7.38,4.43.94.95,2.41.63,3.55-.13,1.14-.76,2.15-3,2.75-4.46.6-1.46,1.75-1.21,2.66-.55.91.65,2.77,2.13,4.72,3.21s2.42,1.95,1.41,2.45c-1.01.5-2.68-.19-3.85-.67-1.17-.48-3.27-1.41-4.26.31-.99,1.72-1.1,4.2-1.7,5.39s-1.82,3.42-4.04,4.12c-1.17.37-2.03-.82-2.85-1.79-.5-.59-.85-.81-1.37-1.25-.52-.44-1.57-.68-1.95-.1-.65,1.01.14,1.93.61,2.35,1.35,1.22,3.41,3.74,5.51,3.3s3.15-1.34,4.19-2.56,1.78-2.39,2.39-4.11c.45-1.28,5.55,1,6.59,1.49,1.04.49.09,2.86-.18,4.11-.27,1.25-.75,4.25,1.11,4.43,1.85.18,2.12-.61,1.79-2.01s-.09-2.75,1.17-6.49c1.26-3.75,7.35-4.51,10.03-4.41,2.68.1,4.61.38,4.91-1.45.3-1.82-.57-3.37-2.18-5.64-1.61-2.27-1.22-6.1-.96-7.63.26-1.53,1.68-1.75,2.34-.61.67,1.14.32,2.52.48,5.59.16,3.07,2.6,6.22,3.58,7.23.98,1.01,1.41,2.15,1.08,2.91-.33.76-1.29,2.17-6.04,3.86-4.74,1.69-5.03,4.3-8.06,9.65Z"/></g></svg>