<?xml version="1.0" encoding="UTF-8"?><svg id="Layer_2" xmlns="http://www.w3.org/2000/svg" xmlns:xlink="http://www.w3.org/1999/xlink" viewBox="0 0 171.06 206.12"><defs><style>.cls-1{fill:url(#linear-gradient);}.cls-1,.cls-2,.cls-3,.cls-4,.cls-5,.cls-6,.cls-7,.cls-8{stroke-width:0px;}.cls-2{fill:url(#linear-gradient-4);}.cls-3{fill:url(#linear-gradient-2);}.cls-4{fill:url(#linear-gradient-3);}.cls-5{fill:url(#linear-gradient-8);}.cls-6{fill:url(#linear-gradient-7);}.cls-7{fill:url(#linear-gradient-5);}.cls-8{fill:url(#linear-gradient-6);}</style><linearGradient id="linear-gradient" x1="26.3" y1="215.94" x2="90.67" y2="-43.26" gradientUnits="userSpaceOnUse"><stop offset="0" stop-color="#abf484"/><stop offset="1" stop-color="#f2ca2f"/></linearGradient><linearGradient id="linear-gradient-2" x1="57.5" y1="223.69" x2="121.87" y2="-35.51" xlink:href="#linear-gradient"/><linearGradient id="linear-gradient-3" x1="38.34" y1="218.96" x2="102.71" y2="-40.24" gradientTransform="translate(0 0)" xlink:href="#linear-gradient"/><linearGradient id="linear-gradient-4" x1="121.35" y1="239.55" x2="185.72" y2="-19.65" xlink:href="#linear-gradient"/><linearGradient id="linear-gradient-5" x1="136.11" y1="243.22" x2="200.48" y2="-15.98" xlink:href="#linear-gradient"/><linearGradient id="linear-gradient-6" x1="133.06" y1="242.46" x2="197.44" y2="-16.74" xlink:href="#linear-gradient"/><linearGradient id="linear-gradient-7" x1="4.99" y1="210.65" x2="69.37" y2="-48.55" xlink:href="#linear-gradient"/><linearGradient id="linear-gradient-8" x1="-12.51" y1="206.3" x2="51.86" y2="-52.9" xlink:href="#linear-gradient"/></defs><g id="Layer_2-2"><path class="cls-1" d="M60.17,79.89c2.23.81,4.06.5,3.68-.87-.38-1.38-.41-3.59-2.82-4.37-1.82-.58-3.61-.42-3.5.83.1,1.25.41,3.6,2.64,4.41Z"/><path class="cls-3" d="M143.28,133.26c4.34-2.1,10.27-8.89,9.21-13.34-1.06-4.46-6.24-6.46-9.3-15.41-3.06-8.96-2.58-14.85-2.73-18.31s-2.8-10.1-7.76-8.92c-4.97,1.18-7.55,4.48-8.65,9.45-1.11,4.97-1.62,10.2,2.2,17.23,3.82,7.03,5.17,10.47,3.15,12.16-2.02,1.69-9.22-2.01-19.08,1.75-9.87,3.76-13.45,8.51-14.41,9.73-.97,1.22-2.93.51-4.23-.43-1.3-.95-4.99-2.71-7.63-3.07-2.64-.36-4.16-.51-5.13-1.39-.84-.77-.88-2.27,1.62-3.07,2.61-.83,6.84,1.15,9.34,1.84,5.47,1.51,11.44-2.6,12.45-5.35,1.01-2.75-1.32-4.91-3.33-5.71-2.01-.8-12.78-7.89-15.74-11.56-2.95-3.67-7.05-3.53-10-.95-2.94,2.58-4.79,6.56-6.08,9.89-1.29,3.33-3.71,3.91-6.88.76-3.17-3.15-11.95-7.86-14.42-8.35-2.47-.49-.99-1.92-.53-3.1.46-1.18.56-2.75,3.11-1.61,2.56,1.14,9.2,2.8,16.75.87,7.55-1.92,11.43-4.28,12.6-7.25,1.18-2.97-1.16-2.24-2.2-5.49s-2.7-14.06-6.19-17.81c-3.49-3.75-5.01-4.1-4.98-6.26.03-2.16.8-6.82,5.76-7.46,4.96-.64,12.47,9.51,13.63,16.67,1.16,7.17,1.91,19.81,12.85,28.87,10.93,9.06,21.11,9.25,22.41,6.79,1.3-2.46-4.04-10.25-5.73-16.21-1.68-5.97-4.29-20.77-4.83-29.07s-3.7-15.38-5.16-17.24c-1.49-1.89-.7-1.9,2.2-1.69,4.03.29,14.45-5.22,19.16-11.08,4.71-5.87,5.53-10.32,3.35-12.16-1.4-1.18-2.39-.44-4.86.48-2.47.92-9.78,2.72-14.92,1.18-5.14-1.54-8.14-2.85-11.19-4.95-3.05-2.1-11.83-9.64-19.54-12.11-7.71-2.48-15.22-2.65-26.14,4.04-10.92,6.69-14.63,19.13-15.62,24.61-.99,5.48,2.59,18.88,2.92,21.97.33,3.08.63,8.32-2,10.56-2.63,2.24-11.5,13.89-13.7,27.86-2.2,13.97-.46,29.26,9.35,45.71,9.81,16.45,24.85,24.85,39.8,30.05s21.52,5.4,24.15,5.72c2.63.32,6.55,6.46,6.51,11.31-.03,5.07-1.32,9.19-7.68,13.74-5.88,4.21-9.88,1.8-9.91-2.85-.03-4.66,2.02-13.19,8.48-14.93,2.78-.75,4.99-3.15,1.98-6.02-2.02-1.92-6.84,1.8-8.85,3.53-2.01,1.73-7.42,8.39-7.99,15.07-.57,6.68-3.11,8.81-4.8,10.01-1.69,1.21-3.15,3.35,1.98,3.83,5.14.49,16.9,1.2,23.85-4.4,6.95-5.59,11.58-13.32,9.17-20.82-2.4-7.5-7.42-9-3.09-10.38,4.33-1.39,12.54-6.87,16.61-18.06,4.07-11.19,16.33-16.78,20.67-18.88ZM102.91,55.41c1.25,9.25,2.39,20.71,3.17,25.11,1.98,11.19,6.97,18.07,4.55,18.46-2.42.39-7.15-1.8-11.77-6.53-4.62-4.73-7.84-11.51-9.09-20.18-.91-6.31-1.79-14.36-9.08-21.69-7.29-7.33-12.83-5.06-14.7-3.38-3.01,2.72-4.86,6.43-5.66,9.21-.84,2.91-3.2,2.12-2.61-.89.62-3.17,3.25-9.44,5.44-12.32,1.57-2.06,7.4-8.51,13.89-8.34,9.06.23,13.22,1.88,18.89,5.92,1.92,1.37,5.71,5.37,6.96,14.62ZM57.63,30.42c5.34-3.95,12.62-1.81,15.48-.89,2.57.83.14.93-.99,1.13-8.25,1.49-14.5,12.94-15.05,15.58-.54,2.64-1.09,2.59-1.7.4-.61-2.19-3.09-12.27,2.25-16.22ZM113.91,155.14c-7.2,12.73-21.29,10.02-37.37,6.3-16.08-3.72-34.87-18.9-40.49-29-5.62-10.1-8.94-29.21-7.33-41.7,1.61-12.49,11.42-25.03,14.78-27.3,3.36-2.28,2.73-7.77-.02-16.54-2.75-8.76-3.3-20.73,2.43-30.03,5.73-9.29,12.79-11.1,20.74-12.72,7.95-1.62,19.54,6.04,22.59,9.08,3.05,3.04,8.87,6.41,13.31,8.5s11.72,3.2,15.57,1.78c6.76-2.5,4.73.67,3.28,2.09-1.46,1.42-3.13,3.07-11.1,6.49-7.98,3.41-17.01-.27-21.6-2.23-4.59-1.96-15.78-7.2-25.35-7.08-9.57.12-13.64,7.89-14.72,13.17-1.08,5.28,1.81,14.81,2.81,19.42,1,4.6.11,6.52,4.76,7.21,4.65.69,8.13,5.16,10.25,8.06,2.12,2.9,3.66,10.16,3.95,12.52.29,2.35,1.91,4.3.7,5.21s-8.51,3.81-15.66,3.89c-7.15.08-10.6-2.8-14.57-5.87-2.31-1.78-2.14,3.46-.29,6.34,1.85,2.88-1.22,4.59-3.72,6.52-2.5,1.94-.76,5.21,3.72,5.94,5.66.93,15.32,8.29,17.56,10.54,2.24,2.25,5.74,1.51,8.45-.3,2.71-1.81,5.12-7.13,6.54-10.6,1.42-3.47,4.16-2.87,6.32-1.32,2.16,1.55,6.58,5.07,11.23,7.65,4.64,2.58,5.76,4.64,3.36,5.84-2.41,1.2-6.38-.46-9.16-1.59-2.78-1.13-7.79-3.35-10.13.75-2.35,4.1-2.62,9.99-4.04,12.83-1.38,2.75-4.34,8.13-9.6,9.8-2.79.88-4.83-1.94-6.79-4.25-1.19-1.4-2.02-1.93-3.26-2.98-1.24-1.05-3.74-1.61-4.63-.25-1.56,2.4.34,4.59,1.46,5.6,3.2,2.9,8.11,8.91,13.11,7.86s7.49-3.19,9.96-6.09,4.23-5.68,5.69-9.79c1.08-3.05,13.21,2.38,15.68,3.55,2.47,1.16.22,6.81-.42,9.78-.64,2.98-1.77,10.1,2.63,10.54,4.41.44,5.03-1.46,4.25-4.77s-.21-6.54,2.79-15.45c3-8.91,17.49-10.73,23.87-10.5,6.38.24,10.97.9,11.69-3.44.72-4.34-1.36-8.01-5.2-13.43-3.84-5.41-2.9-14.51-2.28-18.15.62-3.64,3.99-4.17,5.57-1.46,1.59,2.72.75,6.01,1.14,13.31.39,7.3,6.2,14.8,8.52,17.21,2.33,2.41,3.36,5.12,2.57,6.92-.78,1.8-3.08,5.17-14.36,9.19-11.28,4.02-11.96,10.23-19.17,22.97Z"/><path class="cls-4" d="M31.18,188.29c3.49,1.96,12.61,7.65,22.95,5.03,10.33-2.62,10.7-9.2,10.19-11.35-1.31-5.52-8.58-9.79-18.31-6.74-9.73,3.05-13.3,6.92-15.22,8.73-2.53,2.39-2.54,2.69.39,4.34Z"/><path class="cls-2" d="M129.61,172.2c-.8,8.81,1.12,12.96,1.93,15.1,1.07,2.83,1.31,2.93,3.61,1.13,2.74-2.14,10.33-7.56,11.67-16.71,1.34-9.15-3.8-11.64-5.7-11.95-4.85-.79-10.7,3.62-11.5,12.43Z"/><path class="cls-7" d="M154.24,145.61c2.29,7.51,5.25,10.28,6.63,11.77,1.82,1.97,2.05,1.97,3.34-.28,1.53-2.68,5.97-9.67,4.01-17.64-1.96-7.97-7.02-8.3-8.68-7.92-4.25.97-7.59,6.55-5.3,14.06Z"/><path class="cls-8" d="M169.88,105.97c-2.29-4.5-5.37-3.98-6.31-3.52-2.41,1.18-3.63,4.99-1.2,9.16,2.42,4.18,4.59,5.42,5.62,6.12,1.37.92,1.51.89,1.96-.63.54-1.82,2.22-6.63-.07-11.13Z"/><path class="cls-6" d="M19.37,167.19c7.94,2.41,10.84-1.82,11.36-3.46,1.35-4.2-1.78-9.98-9.49-11.87-7.71-1.89-11.65-.74-13.66-.31-2.65.57-2.77.77-1.49,3.05,1.54,2.72,5.32,10.18,13.26,12.59Z"/><path class="cls-5" d="M12.37,135.82c1.53-2.12.81-5.95-3.19-8.42-4-2.47-6.43-2.54-7.64-2.66-1.6-.16-1.7-.07-1.39,1.45.37,1.81,1.15,6.71,5.19,9.51,4.04,2.8,6.44.95,7.04.11Z"/></g></svg>