<?xml version="1.0" encoding="UTF-8"?><svg id="Layer_2" xmlns="http://www.w3.org/2000/svg" viewBox="0 0 34.64 34.64"><defs><style>.cls-1{fill:#fff;stroke-width:0px;}</style></defs><g id="Layer_2-2"><path class="cls-1" d="M17.32,0C7.75,0,0,7.75,0,17.32s7.75,17.32,17.32,17.32,17.32-7.75,17.32-17.32S26.88,0,17.32,0ZM28.16,24.1c-1.16,1.34-2.47,2.45-4.36,2.59-1.51.1-2.89-.43-4.18-1.07-5.36-2.64-9.31-6.65-11.51-12.26-.25-.63-.33-1.33-.49-1.99.02-2.27,1.39-3.71,2.95-5,.2-.16.84-.07,1.07.14,1.22,1.13,2.38,2.32,3.55,3.5.46.47.41.96-.05,1.41-.61.62-1.24,1.22-1.84,1.85-.87.9-.9,1.73-.15,2.74,1.58,2.1,3.45,3.9,5.57,5.45.94.68,1.78.63,2.62-.18.61-.59,1.18-1.21,1.78-1.8.57-.56.94-.57,1.51-.01,1.13,1.11,2.24,2.24,3.36,3.36.39.39.57.84.18,1.29Z"/></g></svg>