<?xml version="1.0" encoding="UTF-8"?><svg id="Layer_2" xmlns="http://www.w3.org/2000/svg" viewBox="0 0 42.62 34.28"><defs><style>.cls-1{fill:#fff;stroke-width:0px;}</style></defs><g id="Layer_2-2"><g id="LPuO8o"><path class="cls-1" d="M21.32,24.16c-6.06,0-12.13-.01-18.19,0-1.52,0-2.45-.74-3.04-2.05-.05-.12-.08-.26-.09-.39,0-2.67,0-5.35,0-8.02,0-.32.03-.64.04-.96.03-1.16.72-1.9,1.65-2.43.26-.15.62-.18.93-.19,2.52-.05,5.03-.11,7.55-.11,6.52-.01,13.04,0,19.56,0,3.35,0,6.71.02,10.06,0,.46,0,.86.12,1.23.36.72.45,1.24,1.06,1.54,1.85.04.1.05.21.05.31,0,3.05.02,6.1-.02,9.15,0,.36-.19.77-.42,1.05-.33.42-.75.78-1.18,1.1-.21.16-.52.24-.79.25-1.75.05-3.5.09-5.25.09-4.55.01-9.1,0-13.64,0,0-.01,0-.03,0-.04ZM33.47,18.52s.06,0,.09.01c.15.42.29.84.44,1.26.23.62.43,1.25.7,1.85.2.47.46.57.96.51.42-.05.7-.27.81-.68.26-.95.53-1.89.76-2.84.44-1.8.87-3.61,1.29-5.41.15-.67-.3-1.17-.99-1.13-.49.02-.78.24-.91.71-.26.97-.5,1.94-.75,2.9-.13.52-.27,1.05-.4,1.57-.03,0-.05,0-.08,0-.08-.18-.16-.37-.23-.55-.24-.65-.47-1.3-.7-1.95-.1-.28-.3-.46-.59-.56-.59-.18-1.14.08-1.36.67-.25.68-.49,1.37-.73,2.06-.04.11-.11.21-.19.38-.05-.17-.07-.26-.1-.35-.36-1.4-.72-2.8-1.09-4.2-.15-.55-.68-.82-1.24-.67-.51.14-.77.58-.65,1.12.3,1.33.61,2.67.94,4,.34,1.39.7,2.77,1.05,4.15.08.3.22.53.51.67.58.27,1.13.08,1.37-.5.26-.65.48-1.31.71-1.97.13-.35.25-.71.38-1.06ZM19.44,17.27s-.06-.01-.09-.02c-.03-.12-.07-.24-.1-.36-.35-1.36-.69-2.73-1.05-4.09-.15-.57-.69-.85-1.28-.7-.47.12-.74.62-.62,1.15.27,1.2.55,2.41.84,3.6.37,1.52.77,3.03,1.15,4.55.09.38.32.61.69.71.55.15.97-.03,1.18-.56.35-.91.67-1.84,1-2.77.03-.09.08-.18.15-.35.15.42.27.76.39,1.09.25.69.48,1.4.77,2.08.21.5.5.62,1.03.53.41-.07.66-.3.77-.7.28-1.04.57-2.08.83-3.13.42-1.71.82-3.42,1.22-5.13.13-.55-.2-1-.73-1.1-.59-.1-1.04.17-1.19.75-.27,1.01-.52,2.03-.78,3.05-.12.46-.24.91-.35,1.37-.03,0-.05,0-.08.01-.08-.18-.16-.36-.23-.55-.23-.64-.44-1.29-.7-1.91-.09-.21-.29-.43-.49-.53-.59-.29-1.21-.02-1.45.6-.18.46-.33.94-.49,1.4-.12.33-.25.67-.38,1ZM9.06,18.53s.06,0,.09,0c.12.34.24.68.36,1.01.25.69.48,1.4.77,2.08.2.49.48.61,1.01.53.44-.06.69-.32.8-.74.28-1.06.58-2.12.84-3.18.41-1.68.81-3.36,1.19-5.05.12-.51-.17-.94-.65-1.07-.59-.15-1.11.13-1.27.71-.32,1.23-.63,2.47-.95,3.7-.06.25-.13.49-.2.74-.15-.19-.24-.38-.31-.58-.23-.64-.44-1.29-.7-1.91-.09-.2-.28-.4-.48-.5-.59-.28-1.21,0-1.44.61-.23.61-.43,1.23-.65,1.84-.07.19-.15.36-.23.55-.1-.12-.14-.22-.16-.33-.35-1.37-.7-2.75-1.06-4.12-.15-.57-.67-.85-1.24-.7-.52.14-.79.58-.65,1.15.66,2.71,1.32,5.42,1.99,8.12.13.51.43.74.93.78.48.03.76-.13.96-.63.26-.65.48-1.31.71-1.97.12-.34.25-.69.37-1.03Z"/><path class="cls-1" d="M22.37,34.24v-7.96h6.64c-.12.34-.22.65-.35.95-.73,1.78-1.62,3.47-2.93,4.91-.82.9-1.84,1.52-2.94,2-.09.04-.18.06-.28.09-.04.01-.07.01-.15.02Z"/><path class="cls-1" d="M29.05,7.96c-.2,0-.33,0-.45,0-1.98,0-3.96,0-5.94.03-.24,0-.31-.07-.31-.31.02-2.45.03-4.9.04-7.34,0-.1,0-.19.01-.33.13.04.23.06.32.09,1.43.47,2.51,1.41,3.45,2.54,1.05,1.25,1.8,2.67,2.4,4.17.14.36.29.71.47,1.16Z"/><path class="cls-1" d="M20.22,26.31v7.97c-.37-.14-.7-.25-1.01-.39-1.26-.6-2.22-1.55-3.07-2.63-1.13-1.44-1.85-3.1-2.51-4.78-.01-.04-.02-.07-.04-.16h6.62Z"/><path class="cls-1" d="M20.21.03v7.91h-6.61c.02-.09.02-.13.04-.18.76-1.98,1.64-3.89,3.09-5.48.87-.96,1.86-1.76,3.11-2.19.07-.03.15-.05.22-.07.03,0,.06,0,.15,0Z"/><path class="cls-1" d="M14.86,33.17c-3.39-1.44-6.1-3.69-8.16-6.84.2-.02.33-.04.46-.04,1.35-.01,2.7-.01,4.05-.03.22,0,.27.11.33.28.63,2.02,1.54,3.9,2.74,5.64.21.31.44.61.66.91-.03.03-.06.05-.09.08Z"/><path class="cls-1" d="M14.96,1.12c-.07.11-.14.22-.22.32-1.44,1.9-2.49,4-3.2,6.28-.05.14-.08.26-.28.26-1.43-.02-2.86-.02-4.29-.03-.06,0-.13-.02-.25-.04,2.04-3.17,4.76-5.43,8.25-6.79Z"/><path class="cls-1" d="M35.92,26.32c-2.07,3.16-4.8,5.41-8.19,6.86-.02-.02-.05-.05-.07-.07.06-.09.12-.19.19-.28,1.41-1.92,2.54-3.98,3.21-6.27.06-.22.15-.31.4-.3,1.3.02,2.6.02,3.91.03.15,0,.31.02.55.04Z"/><path class="cls-1" d="M35.91,7.9c-.15.02-.24.04-.33.04-1.4.01-2.8.02-4.19.04-.21,0-.26-.11-.3-.27-.56-1.84-1.39-3.56-2.43-5.18-.25-.38-.53-.74-.79-1.12-.07-.09-.12-.19-.16-.31,3.45,1.38,6.15,3.65,8.21,6.79Z"/></g></g></svg>