<?xml version="1.0" encoding="UTF-8"?><svg id="Layer_2" xmlns="http://www.w3.org/2000/svg" viewBox="0 0 29.82 29.93"><defs><style>.cls-1{fill:#39e55d;stroke-width:0px;}</style></defs><g id="Layer_2-2"><path class="cls-1" d="M0,29.93c.13-.46.24-.89.36-1.33.57-2.08,1.14-4.16,1.71-6.24.02-.07,0-.17-.03-.23-1.02-1.82-1.65-3.76-1.84-5.83-.39-4.45.92-8.35,3.96-11.63C6.47,2.2,9.33.67,12.69.18c4.53-.66,8.57.49,12.04,3.49,2.32,2.01,3.87,4.52,4.62,7.5.79,3.16.6,6.28-.66,9.29-1.55,3.72-4.21,6.39-7.9,8.02-1.66.73-3.41,1.11-5.22,1.18-2.66.1-5.17-.46-7.52-1.7-.13-.07-.24-.08-.38-.04-2.48.66-4.97,1.31-7.46,1.96-.06.02-.12.03-.22.06ZM3.58,26.39c.07-.01.11-.02.15-.03,1.44-.38,2.89-.76,4.33-1.14.11-.03.2-.02.3.04.34.2.68.4,1.03.58,2.55,1.27,5.23,1.66,8.02,1.07,3.42-.71,6.09-2.57,7.96-5.51,1.57-2.46,2.15-5.16,1.81-8.05-.2-1.74-.75-3.36-1.66-4.85-1.34-2.2-3.18-3.85-5.53-4.91-2.21-1-4.53-1.31-6.93-.93-3.14.5-5.74,1.99-7.72,4.48-2.42,3.04-3.2,6.5-2.44,10.3.31,1.55.95,2.97,1.82,4.29.06.09.07.18.04.29-.39,1.39-.77,2.79-1.15,4.19-.02.06-.03.12-.05.19Z"/><path class="cls-1" d="M7.23,11.48c0-1.55.52-2.66,1.52-3.55.5-.45,1.48-.55,2.08-.23.24.13.41.32.51.58.37.99.74,1.98,1.11,2.96.08.22.09.44-.05.63-.19.27-.4.52-.6.78-.17.21-.36.42-.51.64-.16.23-.15.46-.01.71.77,1.38,1.74,2.6,3.04,3.51.59.42,1.24.76,1.87,1.12.1.06.23.09.35.11.24.05.45-.02.61-.21.41-.48.83-.96,1.25-1.44.2-.23.39-.31.69-.18.4.17.79.37,1.17.57.65.34,1.28.7,1.93,1.03.31.16.44.37.4.72-.05.51-.16,1-.37,1.47-.21.45-.6.74-1,1.01-1.11.74-2.31.93-3.57.54-1.64-.5-3.21-1.16-4.61-2.17-1.34-.97-2.46-2.15-3.42-3.48-.65-.89-1.27-1.8-1.75-2.8-.38-.8-.63-1.63-.63-2.31Z"/></g></svg>